<svg width="24" height="24" viewBox="0 0 24 24" fill="none" xmlns="http://www.w3.org/2000/svg">
<mask id="mask0_749_1006" style="mask-type:alpha" maskUnits="userSpaceOnUse" x="0" y="0" width="24" height="24">
<rect width="24" height="24" fill="#D9D9D9"/>
</mask>
<g mask="url(#mask0_749_1006)">
<path d="M12.0031 20.2746C11.4272 20.2746 10.9344 20.07 10.5248 19.6608C10.1152 19.2516 9.9104 18.7596 9.9104 18.1849C9.9104 17.6086 10.115 17.1153 10.5243 16.7049C10.9335 16.2945 11.4254 16.0893 12.0001 16.0893C12.578 16.0893 13.0707 16.2942 13.4783 16.7041C13.8859 17.114 14.0897 17.6068 14.0897 18.1824C14.0897 18.758 13.8859 19.2506 13.4783 19.6602C13.0707 20.0698 12.579 20.2746 12.0031 20.2746ZM12.0031 14.0893C11.4272 14.0893 10.9344 13.8847 10.5248 13.4754C10.1152 13.0662 9.9104 12.5743 9.9104 11.9996C9.9104 11.4217 10.115 10.929 10.5243 10.5214C10.9335 10.1137 11.4254 9.90993 12.0001 9.90993C12.578 9.90993 13.0707 10.1137 13.4783 10.5214C13.8859 10.929 14.0897 11.4207 14.0897 11.9966C14.0897 12.5725 13.8859 13.0653 13.4783 13.4749C13.0707 13.8845 12.579 14.0893 12.0031 14.0893ZM12.0031 7.90993C11.4272 7.90993 10.9344 7.70457 10.5248 7.29383C10.1152 6.8831 9.9104 6.38935 9.9104 5.81258C9.9104 5.23582 10.115 4.74363 10.5243 4.33601C10.9335 3.92841 11.4254 3.72461 12.0001 3.72461C12.578 3.72461 13.0707 3.92841 13.4783 4.33601C13.8859 4.74363 14.0897 5.23582 14.0897 5.81258C14.0897 6.38935 13.8859 6.8831 13.4783 7.29383C13.0707 7.70457 12.579 7.90993 12.0031 7.90993Z" fill="#1C1B1F"/>
</g>
</svg>
